<svg xmlns="http://www.w3.org/2000/svg"
	 viewBox="0 0 490 490">
	<path d="M244.921,350.878c-11.276,0-20.45,9.174-20.45,20.45c0,11.276,9.174,20.45,20.45,20.45c11.276,0,20.45-9.174,20.45-20.45
		C265.371,360.052,256.197,350.878,244.921,350.878z"/>
	<path d="M122.5,0v490h245V0H122.5z M244.921,407.091c-19.751,0-35.762-16.012-35.762-35.763c0-19.751,16.012-35.762,35.762-35.762
		s35.762,16.012,35.762,35.762C280.684,391.079,264.672,407.091,244.921,407.091z M319.005,137.813H170.995V122.5h148.011V137.813z
		 M319.005,98.298H170.995V82.985h148.011V98.298z"/>
</svg>
